<?xml version="1.0" ?><!DOCTYPE svg  PUBLIC '-//W3C//DTD SVG 1.1//EN'  'http://www.w3.org/Graphics/SVG/1.1/DTD/svg11.dtd'><svg enable-background="new 0 0 500 500" height="500px" id="Layer_1" version="1.1" viewBox="0 0 500 500" width="500px" xml:space="preserve" xmlns="http://www.w3.org/2000/svg" xmlns:xlink="http://www.w3.org/1999/xlink"><path clip-rule="evenodd" d="M368.112,381.011c8.447,3.362,17.621,5.273,27.254,5.273  c40.157,0,72.685-32.527,72.685-72.686V177.317c0-40.158-32.527-72.685-72.685-72.685c-9.633,0-18.807,1.908-27.254,5.271V68.29  c0-20.077-16.267-36.34-36.341-36.34H68.29c-20.077,0-36.34,16.264-36.34,36.34v363.421c0,20.078,16.264,36.34,36.34,36.34h263.482  c20.074,0,36.341-16.262,36.341-36.34V381.011z M97.367,77.375h205.327c11.081,0,19.991,8.909,19.991,19.991v50.875  c0,11.081-8.91,19.989-19.991,19.989H97.367c-11.086,0-19.991-8.909-19.991-19.989V97.367C77.375,86.284,86.28,77.375,97.367,77.375  z M422.624,313.599c0,15.082-12.173,27.254-27.258,27.254c-15.082,0-27.254-12.172-27.254-27.254V177.317  c0-15.083,12.172-27.256,27.254-27.256c15.085,0,27.258,12.173,27.258,27.256V313.599z" fill="#010101" fill-rule="evenodd"/></svg>